<?xml version="1.0" encoding="utf-8"?>
<!-- Generator: Adobe Illustrator 12.0.0, SVG Export Plug-In . SVG Version: 6.00 Build 51448)  -->
<!DOCTYPE svg PUBLIC "-//W3C//DTD SVG 1.1//EN" "http://www.w3.org/Graphics/SVG/1.1/DTD/svg11.dtd" [
	<!ENTITY ns_svg "http://www.w3.org/2000/svg">
	<!ENTITY ns_xlink "http://www.w3.org/1999/xlink">
	<!ENTITY stroke_color "#000000">
	<!ENTITY fill_color "#FFFFFF">
	<!ENTITY stroke_width "2.0">
]>
<svg  version="1.1" id="Layer_1" xmlns="&ns_svg;" xmlns:xlink="&ns_xlink;" width="93.358" height="93.391"
	 viewBox="0 0 93.358 93.391" overflow="visible" enable-background="new 0 0 93.358 93.391" xml:space="preserve">
<path fill="#FFFFCC" stroke="#FF0000" stroke-width="&stroke_width;"
	d="M60.928,0.849c1.134-1.132,2.865-1.132,3.93,0c1.065,1.065,1.065,2.796,0,3.929l0,0l0,0
	c-4.062,4.062-6.393,9.122-6.792,13.984c-0.333,3.728,0.467,7.324,2.396,10.253l7.058-7.058c-1.664-3.328-1.131-7.458,1.665-10.255
	c3.397-3.394,8.989-3.394,12.453,0c3.463,3.463,3.463,9.055,0,12.52c-2.73,2.729-6.859,3.261-10.188,1.665l-7.125,7.058
	c2.931,1.93,6.593,2.729,10.255,2.396c4.928-0.467,9.987-2.729,14.05-6.859l0,0l0,0c1.065-1.065,2.862-1.065,3.929,0
	c1.065,1.133,1.065,2.863,0,3.93l0,0l0,0c-5.061,5.061-11.32,7.924-17.446,8.455c-6.261,0.535-12.385-1.331-16.848-5.792l0,0l0,0
	l0,0l0,0c-4.394-4.396-6.257-10.52-5.727-16.781C53.071,12.169,55.934,5.843,60.928,0.849L60.928,0.849L60.928,0.849z"/>
<path fill="#FFFFCC" stroke="#FF0000" stroke-width="&stroke_width;"
	d="M92.559,60.979c1.065,1.065,1.065,2.798,0,3.928c-1.067,1.067-2.863,1.067-3.929,0l0,0V64.84
	c-4.063-4.06-9.122-6.325-13.984-6.79c-3.728-0.333-7.324,0.465-10.253,2.396l7.058,7.058c3.329-1.665,7.458-1.065,10.188,1.665
	c3.463,3.463,3.463,9.055,0,12.451c-3.396,3.463-8.989,3.463-12.453,0c-2.796-2.73-3.329-6.857-1.665-10.186l-7.058-7.06
	c-1.93,2.931-2.73,6.525-2.396,10.255c0.399,4.862,2.73,9.921,6.792,13.983l0,0l0,0c1.132,1.133,1.132,2.863,0,3.93
	c-1.065,1.065-2.796,1.063-3.93,0l0,0h0.067c-5.061-5.063-7.924-11.322-8.457-17.446c-0.531-6.261,1.333-12.387,5.727-16.78l0,0l0,0
	l0,0l0,0c4.463-4.461,10.587-6.327,16.848-5.794C81.239,53.055,87.498,55.918,92.559,60.979L92.559,60.979L92.559,60.979z"/>
<path fill="#FFFFCC" stroke="#FF0000" stroke-width="&stroke_width;"
 	d="M32.429,92.543c-1.065,1.131-2.863,1.131-3.928,0c-1.067-1.067-1.067-2.797,0-3.93l0,0v0.067
	c4.062-4.129,6.392-9.188,6.857-14.05c0.266-3.729-0.465-7.324-2.396-10.255l-7.125,7.06c1.665,3.329,1.132,7.456-1.598,10.253
	c-3.463,3.396-9.057,3.396-12.519,0c-3.463-3.463-3.463-9.055,0-12.519c2.796-2.73,6.925-3.263,10.188-1.598l7.125-7.127
	c-2.931-1.93-6.525-2.729-10.255-2.395c-4.86,0.465-9.921,2.729-14.05,6.857l0,0l0,0c-1.065,1.065-2.798,1.065-3.93,0
	c-1.063-1.065-1.063-2.863,0-3.928l0,0h0.067c4.995-5.061,11.32-7.858,17.38-8.457c6.325-0.532,12.385,1.333,16.848,5.794l0,0l0,0
	l0,0l0,0c4.461,4.394,6.325,10.52,5.725,16.78C40.288,81.221,37.488,87.549,32.429,92.543L32.429,92.543L32.429,92.543z"/>
<path fill="#FFFFCC" stroke="#FF0000" stroke-width="&stroke_width;"
	d="M0.798,32.413c-1.063-1.067-1.063-2.799,0-3.93c1.132-1.065,2.865-1.065,3.93,0l0,0v0.067
	c4.062,4.062,9.123,6.325,14.05,6.792c3.662,0.332,7.324-0.467,10.255-2.396l-7.125-7.058c-3.263,1.664-7.457,1.063-10.188-1.665
	c-3.463-3.465-3.463-9.057,0-12.453c3.462-3.461,9.055-3.461,12.453,0c2.796,2.73,3.329,6.859,1.664,10.188l7.125,7.058
	c1.931-2.929,2.663-6.525,2.331-10.253c-0.399-4.862-2.73-9.923-6.792-13.984l0,0l0,0c-1.067-1.065-1.067-2.864,0-3.929
	c1.065-1.065,2.863-1.065,3.927,0l0,0l0,0c4.997,5.061,7.86,11.32,8.391,17.446c0.6,6.261-1.332,12.385-5.725,16.781l0,0v0.065l0,0
	v-0.065c-4.463,4.461-10.523,6.327-16.848,5.792C12.186,40.336,5.86,37.472,0.798,32.413L0.798,32.413L0.798,32.413z"/>
<path fill="&stroke_color;"
	fill-rule="evenodd" clip-rule="evenodd" d="M50.199,47.261v-8.189h-1.532v-1.266h7.793v1.266h-3.397v14.848
	c0,0.333,0.067,0.666,0.201,0.934c0.065,0.266,0.266,0.534,0.467,0.731c0.532,0.532,1.13,0.8,1.796,0.8h-7.591
	c0.666-0.067,1.198-0.401,1.598-0.866c0.401-0.533,0.666-1.067,0.666-1.599v-5.26H48.8c0,2.132-0.531,3.862-1.731,5.327
	c-1.266,1.598-2.995,2.398-5.061,2.398c-3.127,0-5.526-1.266-7.124-3.729c-1.132-1.796-1.731-3.662-1.731-5.659
	c0-0.268,0-0.533,0-0.733l3.063-0.733c-0.067,0.067-0.067,0.199-0.067,0.399c0,0.133-0.066,0.334-0.066,0.6
	c0,2.196,0.332,3.996,0.932,5.46c0.999,2.398,2.665,3.529,4.993,3.529c1.266,0,2.331-0.6,2.997-1.931
	c0.6-1.131,0.934-2.464,0.934-4.062c0-1.399-0.333-2.464-0.999-3.263c-0.6-0.799-1.666-1.2-3.13-1.332
	c-0.799,0-1.598,0.199-2.263,0.598v-1.798c0.332,0.133,0.731,0.268,1.063,0.334c0.333,0.067,0.733,0.133,1.2,0.133
	c0.998,0,1.932-0.333,2.663-0.999c0.801-0.666,1.133-1.397,1.133-2.331c0-0.797-0.266-1.464-0.865-1.93
	c-0.602-0.534-1.398-0.799-2.331-0.799c-0.934,0-1.866,0.398-2.665,1.131c-0.864,0.733-1.266,1.465-1.266,2.264l-1.997-1.596
	c0.533-0.8,1.332-1.464,2.263-1.999c1.133-0.6,2.398-0.932,3.664-0.932c1.464,0,2.796,0.399,3.994,1.198
	c1.333,0.866,1.999,1.997,1.999,3.329c0,0.733-0.2,1.331-0.532,1.866c-0.334,0.465-0.801,0.934-1.401,1.398
	c0.135,0.066,0.334,0.199,0.535,0.332c0.332,0.201,0.6,0.534,0.799,0.866c0.067,0.133,0.133,0.334,0.332,0.598
	c0.135,0.268,0.268,0.533,0.334,0.666H50.199z"/>
</svg>
